<?xml version="1.0" standalone="no"?>
<!DOCTYPE svg PUBLIC "-//W3C//DTD SVG 20010904//EN"
 "http://www.w3.org/TR/2001/REC-SVG-20010904/DTD/svg10.dtd">
<svg version="1.0" xmlns="http://www.w3.org/2000/svg"
 width="139.000000pt" height="139.000000pt" viewBox="0 0 139.000000 139.000000"
 preserveAspectRatio="xMidYMid meet">
<metadata>
Created by potrace 1.11, written by Peter Selinger 2001-2013
</metadata>
<g transform="translate(0.000000,139.000000) scale(0.100000,-0.100000)"
fill="#000000" stroke="none">
<path d="M590 1384 c-8 -1 -55 -8 -105 -14 -189 -26 -468 -133 -481 -185 -8
-32 2 -175 16 -242 13 -61 26 -73 110 -102 142 -50 333 -168 448 -278 l67 -64
-65 6 c-85 7 -108 11 -213 37 -98 25 -132 20 -156 -23 -20 -37 -10 -66 60
-161 123 -166 348 -358 421 -358 106 0 371 254 512 490 54 92 58 127 19 179
-57 76 -182 197 -277 267 -60 45 -92 74 -80 74 58 0 288 -69 386 -115 31 -16
41 -16 68 -5 17 7 35 20 39 29 21 41 36 227 21 266 -19 50 -264 148 -450 180
-81 14 -293 26 -340 19z"/>
</g>
</svg>
